<svg fill="none" height="20" viewBox="0 0 20 20" width="20" xmlns="http://www.w3.org/2000/svg" xmlns:xlink="http://www.w3.org/1999/xlink"><mask id="a" height="20" maskUnits="userSpaceOnUse" width="20" x="0" y="0"><path d="m0 0h20v20h-20z" fill="#eaeef9"/></mask><g mask="url(#a)"><path d="m10.0417 16.25c-1.74995 0-3.22912-.6042-4.43745-1.8125-1.20834-1.2083-1.8125-2.6875-1.8125-4.4375s.60416-3.22917 1.8125-4.4375c1.20833-1.20833 2.6875-1.8125 4.43745-1.8125.9723 0 1.8925.21528 2.7609.64583.8678.43056 1.5864 1.04167 2.1558 1.83334v-2.47917h1.25v5.10417h-5.0833v-1.25h3.2916c-.4444-.80556-1.0555-1.44084-1.8333-1.90584-.7778-.46555-1.625-.69833-2.5417-.69833-1.38884 0-2.5694.48611-3.54162 1.45833-.97222.97223-1.45833 2.15278-1.45833 3.54167 0 1.3889.48611 2.5694 1.45833 3.5417.97222.9722 2.15278 1.4583 3.54162 1.4583 1.0695 0 2.0348-.3056 2.8959-.9167s1.4653-1.4166 1.8125-2.4166h1.3125c-.375 1.3611-1.1214 2.4652-2.2392 3.3125-1.1183.8472-2.3789 1.2708-3.7817 1.2708z" fill="#dfd6ff"/></g></svg>